<?xml version="1.0" encoding="UTF-8" standalone="no"?>
<!DOCTYPE svg PUBLIC "-//W3C//DTD SVG 1.1//EN"
 "http://www.w3.org/Graphics/SVG/1.1/DTD/svg11.dtd">
<!-- Generated by graphviz version 2.43.0 (0)
 -->
<!-- Title: treap&lt; T, Combine &gt;::node Pages: 1 -->
<svg width="153pt" height="126pt"
 viewBox="0.00 0.00 153.00 126.00" xmlns="http://www.w3.org/2000/svg" xmlns:xlink="http://www.w3.org/1999/xlink">
<g id="graph0" class="graph" transform="scale(1 1) rotate(0) translate(4 122)">
<title>treap&lt; T, Combine &gt;::node</title>
<!-- Node1 -->
<g id="Node000001" class="node">
<title>Node1</title>
<g id="a_Node000001"><a xlink:title=" ">
<polygon fill="#999999" stroke="#666666" points="120,-30 0,-30 0,0 120,0 120,-30"/>
<text text-anchor="start" x="8" y="-18" font-family="Helvetica,sans-Serif" font-size="10.00">treap&lt; T, Combine &gt;</text>
<text text-anchor="middle" x="60" y="-7" font-family="Helvetica,sans-Serif" font-size="10.00">::node</text>
</a>
</g>
</g>
<!-- Node2 -->
<g id="Node000002" class="node">
<title>Node2</title>
<g id="a_Node000002"><a xlink:href="../../d2/d74/structtreap_1_1node.html" target="_top" xlink:title=" ">
<polygon fill="white" stroke="#666666" points="120,-118 0,-118 0,-88 120,-88 120,-118"/>
<text text-anchor="start" x="8" y="-106" font-family="Helvetica,sans-Serif" font-size="10.00">treap&lt; T, Combine &gt;</text>
<text text-anchor="middle" x="60" y="-95" font-family="Helvetica,sans-Serif" font-size="10.00">::node</text>
</a>
</g>
</g>
<!-- Node2&#45;&gt;Node1 -->
<g id="edge1_Node000001_Node000002" class="edge">
<title>Node2&#45;&gt;Node1</title>
<g id="a_edge1_Node000001_Node000002"><a xlink:title=" ">
<path fill="none" stroke="#9a32cd" stroke-dasharray="5,2" d="M60,-77.49C60,-62.2 60,-43.05 60,-30.22"/>
<polygon fill="#9a32cd" stroke="#9a32cd" points="56.5,-77.8 60,-87.8 63.5,-77.8 56.5,-77.8"/>
</a>
</g>
<text text-anchor="middle" x="63.5" y="-62" font-family="Helvetica,sans-Serif" font-size="10.00" fill="grey"> l</text>
<text text-anchor="middle" x="63.5" y="-51" font-family="Helvetica,sans-Serif" font-size="10.00" fill="grey">r</text>
</g>
<!-- Node2&#45;&gt;Node2 -->
<g id="edge2_Node000002_Node000002" class="edge">
<title>Node2&#45;&gt;Node2</title>
<g id="a_edge2_Node000002_Node000002"><a xlink:title=" ">
<path fill="none" stroke="#9a32cd" stroke-dasharray="5,2" d="M130.08,-109.02C135,-107.65 138,-105.64 138,-103 138,-98.88 130.69,-96.3 120.18,-95.27"/>
<polygon fill="#9a32cd" stroke="#9a32cd" points="129.43,-105.58 120.18,-110.73 130.63,-112.48 129.43,-105.58"/>
</a>
</g>
<text text-anchor="middle" x="141.5" y="-106" font-family="Helvetica,sans-Serif" font-size="10.00" fill="grey"> l</text>
<text text-anchor="middle" x="141.5" y="-95" font-family="Helvetica,sans-Serif" font-size="10.00" fill="grey">r</text>
</g>
</g>
</svg>
