<?xml version="1.0" encoding="UTF-8" standalone="no"?>
<!DOCTYPE svg PUBLIC "-//W3C//DTD SVG 1.1//EN"
 "http://www.w3.org/Graphics/SVG/1.1/DTD/svg11.dtd">
<!-- Generated by graphviz version 2.43.0 (0)
 -->
<!-- Title: include/celony/range_query/heavy_light_decomposition.hpp Pages: 1 -->
<svg width="216pt" height="159pt"
 viewBox="0.00 0.00 216.00 159.00" xmlns="http://www.w3.org/2000/svg" xmlns:xlink="http://www.w3.org/1999/xlink">
<g id="graph0" class="graph" transform="scale(1 1) rotate(0) translate(4 155)">
<title>include/celony/range_query/heavy_light_decomposition.hpp</title>
<!-- Node1 -->
<g id="Node000001" class="node">
<title>Node1</title>
<g id="a_Node000001"><a xlink:title=" ">
<polygon fill="#999999" stroke="#666666" points="208,-151 0,-151 0,-121 208,-121 208,-151"/>
<text text-anchor="start" x="8" y="-139" font-family="Helvetica,sans-Serif" font-size="10.00">include/celony/range</text>
<text text-anchor="middle" x="104" y="-128" font-family="Helvetica,sans-Serif" font-size="10.00">_query/heavy_light_decomposition.hpp</text>
</a>
</g>
</g>
<!-- Node2 -->
<g id="Node000002" class="node">
<title>Node2</title>
<g id="a_Node000002"><a xlink:title=" ">
<polygon fill="#e0e0e0" stroke="#999999" points="145.5,-19 62.5,-19 62.5,0 145.5,0 145.5,-19"/>
<text text-anchor="middle" x="104" y="-7" font-family="Helvetica,sans-Serif" font-size="10.00">bits/stdc++.h</text>
</a>
</g>
</g>
<!-- Node1&#45;&gt;Node2 -->
<g id="edge1_Node000001_Node000002" class="edge">
<title>Node1&#45;&gt;Node2</title>
<g id="a_edge1_Node000001_Node000002"><a xlink:title=" ">
<path fill="none" stroke="#63b8ff" d="M95.41,-120.71C90.1,-111.01 83.78,-97.69 81,-85 78.15,-71.98 77.85,-67.96 81,-55 83.31,-45.51 88.02,-35.78 92.58,-27.85"/>
<polygon fill="#63b8ff" stroke="#63b8ff" points="95.64,-29.55 97.9,-19.2 89.68,-25.89 95.64,-29.55"/>
</a>
</g>
</g>
<!-- Node3 -->
<g id="Node000003" class="node">
<title>Node3</title>
<g id="a_Node000003"><a xlink:href="../../d1/df8/segment__tree_8hpp.html" target="_top" xlink:title=" ">
<polygon fill="white" stroke="#666666" points="203.5,-85 90.5,-85 90.5,-55 203.5,-55 203.5,-85"/>
<text text-anchor="start" x="98.5" y="-73" font-family="Helvetica,sans-Serif" font-size="10.00">celony/range_query</text>
<text text-anchor="middle" x="147" y="-62" font-family="Helvetica,sans-Serif" font-size="10.00">/segment_tree.hpp</text>
</a>
</g>
</g>
<!-- Node1&#45;&gt;Node3 -->
<g id="edge2_Node000001_Node000003" class="edge">
<title>Node1&#45;&gt;Node3</title>
<g id="a_edge2_Node000001_Node000003"><a xlink:title=" ">
<path fill="none" stroke="#63b8ff" d="M113.54,-120.8C118.89,-112.84 125.68,-102.74 131.74,-93.71"/>
<polygon fill="#63b8ff" stroke="#63b8ff" points="134.81,-95.42 137.48,-85.16 129,-91.51 134.81,-95.42"/>
</a>
</g>
</g>
<!-- Node3&#45;&gt;Node2 -->
<g id="edge3_Node000003_Node000002" class="edge">
<title>Node3&#45;&gt;Node2</title>
<g id="a_edge3_Node000003_Node000002"><a xlink:title=" ">
<path fill="none" stroke="#63b8ff" d="M136.59,-54.84C130.54,-46.61 122.88,-36.18 116.5,-27.51"/>
<polygon fill="#63b8ff" stroke="#63b8ff" points="119.19,-25.25 110.44,-19.27 113.55,-29.4 119.19,-25.25"/>
</a>
</g>
</g>
</g>
</svg>
